<svg width="254" height="226" viewBox="0 0 254 226" fill="none" xmlns="http://www.w3.org/2000/svg">
<line x1="151.058" y1="22.7808" x2="85.1556" y2="24.1538" stroke="black" stroke-width="3"/>
<line x1="206.632" y1="116.143" x2="49.427" y2="116.143" stroke="black" stroke-width="3"/>
<line x1="224.581" y1="89.3501" x2="195.062" y2="41.9825" stroke="black" stroke-width="3"/>
<line x1="231.243" y1="137.409" x2="201.038" y2="185.463" stroke="black" stroke-width="3"/>
<line x1="58.32" y1="34.9952" x2="32.2336" y2="87.1681" stroke="black" stroke-width="3"/>
<line x1="31.4481" y1="133.025" x2="64.3994" y2="181.765" stroke="black" stroke-width="3"/>
<line x1="101.6" y1="201.7" x2="155.832" y2="201.7" stroke="black" stroke-width="3"/>
<line x1="76.76" y1="173.036" x2="73.3276" y2="48.0953" stroke="black" stroke-width="3"/>
<path d="M50.8 105.347L102.63 68.806L154.459 32.2649" stroke="black" stroke-width="3"/>
<path d="M99.6834 188.17L155.489 158.049L211.295 127.928" stroke="black" stroke-width="3"/>
<path d="M206.632 105.719L145.878 67.619L85.1243 29.519" stroke="black" stroke-width="3"/>
<path d="M165.443 177.8L123.224 110.524L81.0054 43.2487" stroke="black" stroke-width="3"/>
<path d="M85.1243 184.665L125.284 116.359L165.443 48.054" stroke="black" stroke-width="3"/>
<path d="M159.951 192.903L99.1973 154.803L38.4432 116.703" stroke="black" stroke-width="3"/>
<line x1="181.106" y1="173.037" x2="177.674" y2="52.2156" stroke="black" stroke-width="3"/>
<circle cx="175.741" cy="26.0865" r="26.0865" fill="#F94B00"/>
<circle cx="180.546" cy="199.081" r="26.0865" fill="#9A07B1"/>
<circle cx="227.914" cy="112.584" r="26.0865" fill="#FF0000"/>
<circle cx="78.2595" cy="199.081" r="26.0865" fill="#0015D5"/>
<circle cx="26.0865" cy="112.584" r="26.0865" fill="#A94005"/>
<circle cx="70.0216" cy="26.0865" r="26.0865" fill="#FCE300"/>
</svg>
